PathFileType	4	(X/Y/Z)	/Users/itak/Documents/Research/Walk-IL/dataset/trc/00170_00008.trc
DataRate	CameraRate	NumFrames	NumMarkers	Units	OrigDataRate	OrigDataStartFrame	OrigNumFrames
100.000000	100.000000	4	53	mm	100.000000	72	577
Frame#	Time	RPSI			LPSI			L3			STRN			T10			C7			CLAV			RBAK			LBAK			LSHO			LUPA			LAEL			LAOL			LWTS			LWPS			LFRA			LIFD			LHPS			LHTS			RSHO			RUPA			RAEL			RAOL			RWTS			RWPS			RFRA			RIFD			RHTS			RHPS			RBHD			LFHD			RFHD			LBHD			LHIP			RHIP			RASI			LASI			LKNE			LTHI			LANK			LTIP			LTOE			LMT1			LMT5			LHEE			RKNE			RTHI			RANK			RTIP			RTOE			RMT1			RMT5			RHEE			
		X1	Y1	Z1	X2	Y2	Z2	X3	Y3	Z3	X4	Y4	Z4	X5	Y5	Z5	X6	Y6	Z6	X7	Y7	Z7	X8	Y8	Z8	X9	Y9	Z9	X10	Y10	Z10	X11	Y11	Z11	X12	Y12	Z12	X13	Y13	Z13	X14	Y14	Z14	X15	Y15	Z15	X16	Y16	Z16	X17	Y17	Z17	X18	Y18	Z18	X19	Y19	Z19	X20	Y20	Z20	X21	Y21	Z21	X22	Y22	Z22	X23	Y23	Z23	X24	Y24	Z24	X25	Y25	Z25	X26	Y26	Z26	X27	Y27	Z27	X28	Y28	Z28	X29	Y29	Z29	X30	Y30	Z30	X31	Y31	Z31	X32	Y32	Z32	X33	Y33	Z33	X34	Y34	Z34	X35	Y35	Z35	X36	Y36	Z36	X37	Y37	Z37	X38	Y38	Z38	X39	Y39	Z39	X40	Y40	Z40	X41	Y41	Z41	X42	Y42	Z42	X43	Y43	Z43	X44	Y44	Z44	X45	Y45	Z45	X46	Y46	Z46	X47	Y47	Z47	X48	Y48	Z48	X49	Y49	Z49	X50	Y50	Z50	X51	Y51	Z51	X52	Y52	Z52	X53	Y53	Z53	

73	0.72	800.2719116210938	1060.55029296875	259.3175354003906	794.3377075195312	1057.221435546875	135.0574035644531	798.38818359375	1097.827270507812	199.3896636962891	1060.184204101562	1296.47412109375	175.5448608398438	767.8582763671875	1257.617553710938	189.4082336425781	841.8116455078125	1525.811767578125	169.8949737548828	1034.796020507812	1410.743774414062	167.3277893066406	771.7721557617188	1352.805908203125	283.9786987304688	829.4786376953125	1500.681030273438	70.76020050048828	900.4996948242188	1482.897583007812	-10.31467437744141	859.8198852539062	1351.480224609375	-79.97378540039062	869.3033447265625	1133.835205078125	-97.32966613769531	832.5877685546875	1117.772216796875	-19.25513648986816	993.7252807617188	909.0374145507812	-79.39596557617188	908.2327270507812	881.657958984375	-108.4312133789062	885.47216796875	1023.308837890625	-111.9325637817383	1022.258239746094	725.4593505859375	-55.49723434448242	934.310302734375	813.143310546875	-106.5714721679688	1006.295227050781	830.898681640625	-100.8498840332031	910.5874633789062	1500.206787109375	349.2327880859375	888.6704711914062	1435.757202148438	419.2862243652344	861.4033203125	1150.431884765625	481.4125061035156	862.2294311523438	1138.21337890625	385.3600463867188	1005.847473144531	926.8442993164062	473.9771728515625	932.6071166992188	909.1718139648438	519.7770385742188	886.7323608398438	1078.693115234375	502.9446411132812	1026.479248046875	741.8301391601562	451.5389709472656	1036.126220703125	834.8635864257812	485.8271789550781	963.7344360351562	826.9974365234375	519.4271240234375	1007.358276367188	1691.0595703125	234.2220611572266	1144.176635742188	1626.765869140625	77.43304443359375	1166.896606445312	1627.576782226562	205.0548706054688	981.1619873046875	1701.02001953125	100.2477416992188	886.8629150390625	992.6202392578125	8.676914215087891	963.477294921875	1015.884826660156	372.1902465820312	1040.482788085938	1040.812744140625	310.8366088867188	1013.607299804688	1029.951904296875	52.69612884521484	912.4232788085938	494.1590881347656	32.95256423950195	913.286865234375	637.3458251953125	7.069091796875	801.6478271484375	39.16809844970703	25.78421211242676	860.105224609375	272.15283203125	17.84002494812012	1022.010009765625	37.14763641357422	33.39540100097656	976.6941528320312	39.20525741577148	84.82576751708984	905.9340209960938	29.7192325592041	-23.49677848815918	757.4232788085938	39.28734970092773	99.55509185791016	967.2357177734375	515.9039916992188	353.9258422851562	1015.081359863281	783.8939208984375	379.1412048339844	834.365234375	39.41065216064453	367.8712158203125	966.7706298828125	392.5472412109375	338.7278442382812	1058.0390625	40.29514694213867	332.01318359375	1001.401916503906	36.09511566162109	287.7506713867188	946.5989379882812	34.40419769287109	403.3924255371094	782.3895874023438	39.96273422241211	300.5603942871094	
74	0.73	799.9439086914062	1060.116333007812	259.248046875	793.900146484375	1056.87841796875	135.021240234375	797.9876708984375	1097.562255859375	199.4317779541016	1059.732666015625	1296.035888671875	175.4450988769531	767.4279174804688	1257.43994140625	189.4749603271484	841.5634765625	1525.6259765625	170.0358123779297	1034.427978515625	1410.347045898438	167.3006896972656	771.3975830078125	1352.527465820312	283.9752197265625	829.2180786132812	1500.527099609375	70.8245849609375	900.2791137695312	1482.8232421875	-10.32804775238037	859.5103149414062	1351.318359375	-79.99888610839844	869.2157592773438	1133.748413085938	-97.70869445800781	832.439697265625	1117.48193359375	-19.72323799133301	994.2266235351562	909.2554931640625	-79.63851165771484	908.8643798828125	881.6076049804688	-108.9140014648438	885.6616821289062	1023.196105957031	-112.3647537231445	1023.239318847656	725.7395629882812	-55.87954330444336	935.1380615234375	813.2110595703125	-107.0568237304688	1007.0400390625	831.1942138671875	-101.1918487548828	910.378173828125	1499.750732421875	349.3332214355469	888.4661865234375	1435.195678710938	419.3222045898438	861.2318725585938	1149.791259765625	481.1689453125	862.0562744140625	1137.643432617188	385.0999450683594	1005.817260742188	926.3364868164062	473.6608276367188	932.449951171875	908.552978515625	519.3399047851562	886.4890747070312	1078.052001953125	502.6380004882812	1026.555419921875	741.3421630859375	451.1654968261719	1036.057006835938	834.3660278320312	485.4927368164062	963.6654052734375	826.41845703125	518.9918823242188	1007.61181640625	1690.581909179688	234.3783111572266	1144.240478515625	1626.037109375	77.50836181640625	1166.988159179688	1626.721801757812	205.1287536621094	981.4039916992188	1700.659423828125	100.4511871337891	886.4586791992188	992.584228515625	8.505624771118164	963.1309814453125	1015.370971679688	372.0006713867188	1040.188110351562	1040.361083984375	310.708251953125	1013.242553710938	1029.80322265625	52.55585098266602	911.2718505859375	494.1824035644531	32.82707214355469	912.4580688476562	637.34228515625	6.81337308883667	801.6466064453125	39.12353515625	25.68311309814453	859.3887939453125	272.267822265625	17.75894355773926	1021.941650390625	37.1715202331543	33.39146041870117	976.6296997070312	39.22255706787109	84.81443786621094	905.9232788085938	29.69592666625977	-23.54817390441895	757.4033203125	39.15700912475586	99.54054260253906	965.7645263671875	515.678466796875	353.4134216308594	1014.42041015625	783.4315185546875	378.6709289550781	834.2684326171875	39.41267776489258	367.6225280761719	965.4964599609375	392.5077209472656	338.0786437988281	1058.091674804688	40.24948120117188	331.96435546875	1001.39404296875	35.88279724121094	287.5284118652344	946.5719604492188	34.67535400390625	403.0626220703125	782.326904296875	39.50521469116211	300.183837890625	
75	0.74	799.6077880859375	1059.7275390625	259.1517333984375	793.5009155273438	1056.558715820312	134.9469757080078	797.5958251953125	1097.31689453125	199.4284973144531	1059.264404296875	1295.643188476562	175.3968200683594	766.9815063476562	1257.2666015625	189.5593719482422	841.2803344726562	1525.454467773438	170.1955261230469	1034.043334960938	1409.991455078125	167.3157348632812	771.0022583007812	1352.280151367188	284.0079345703125	828.9185180664062	1500.373657226562	70.90975189208984	900.0330200195312	1482.76318359375	-10.33428764343262	859.1377563476562	1351.128173828125	-79.96964263916016	869.0733642578125	1133.6484375	-98.05648040771484	832.2547607421875	1117.1748046875	-20.14166069030762	994.67626953125	909.4735717773438	-79.92581939697266	909.4400024414062	881.5567016601562	-109.4025039672852	885.7839965820312	1023.06689453125	-112.7685394287109	1024.151977539062	726.0100708007812	-56.3203010559082	935.8841552734375	813.2750854492188	-107.5523147583008	1007.71142578125	831.4644775390625	-101.5668182373047	910.1228637695312	1499.337036132812	349.4598999023438	888.22998046875	1434.671752929688	419.3846130371094	861.0734252929688	1149.1796875	480.9130249023438	861.846435546875	1137.112060546875	384.7945861816406	1005.793518066406	925.83642578125	473.35009765625	932.2623901367188	907.958740234375	518.8970336914062	886.2740478515625	1077.444213867188	502.3212890625	1026.5712890625	740.851806640625	450.7964477539062	1035.93310546875	833.8616333007812	485.16162109375	963.5305786132812	825.8515625	518.5531005859375	1007.856140136719	1690.14306640625	234.5513305664062	1144.267578125	1625.2880859375	77.60178375244141	1167.042114257812	1625.85107421875	205.2066345214844	981.6363525390625	1700.327270507812	100.6473693847656	886.1675415039062	992.56005859375	8.362988471984863	962.770263671875	1014.951110839844	371.8223266601562	1039.89013671875	1039.989624023438	310.627685546875	1012.959655761719	1029.693969726562	52.47198104858398	910.0930786132812	494.2281799316406	32.73674774169922	911.6917724609375	637.3442993164062	6.60385799407959	801.6504516601562	39.0868034362793	25.57698631286621	858.6547241210938	272.4413757324219	17.65423774719238	1021.871643066406	37.19640731811523	33.38460159301758	976.5653686523438	39.24625778198242	84.79778289794922	905.9146728515625	29.67306709289551	-23.59927368164062	757.3687133789062	39.06175994873047	99.51963043212891	964.3782348632812	515.531494140625	353.0121765136719	1013.796875	783.0789794921875	378.2589111328125	834.1968383789062	39.41350936889648	367.4544372558594	964.2798461914062	392.5558166503906	337.5838012695312	1058.1220703125	40.21724319458008	331.9244384765625	1001.371398925781	35.71134948730469	287.3468322753906	946.54931640625	34.90889358520508	402.7843933105469	782.259521484375	39.15625381469727	299.9124450683594	
76	0.75	799.25244140625	1059.3984375	259.0115661621094	793.1337890625	1056.281127929688	134.8189239501953	797.2119140625	1097.0908203125	199.3562927246094	1058.78564453125	1295.30810546875	175.4006805419922	766.5218505859375	1257.106567382812	189.6463928222656	840.97216796875	1525.304565429688	170.364990234375	1033.648681640625	1409.691528320312	167.3738250732422	770.5870971679688	1352.075439453125	284.06591796875	828.5867309570312	1500.230590820312	71.01527404785156	899.7623291015625	1482.71875	-10.3256139755249	858.7158203125	1350.932861328125	-79.89258575439453	868.8780517578125	1133.54833984375	-98.36396789550781	832.027587890625	1116.87109375	-20.5015697479248	995.0570678710938	909.699462890625	-80.25448608398438	909.9429321289062	881.51904296875	-109.8864364624023	885.8363037109375	1022.941040039062	-113.1356506347656	1024.984985351562	726.2860717773438	-56.81959915161133	936.5401611328125	813.352294921875	-108.0517196655273	1008.299011230469	831.7205810546875	-101.9701843261719	909.8243408203125	1498.97998046875	349.6091003417969	887.9606323242188	1434.206787109375	419.4713134765625	860.9191284179688	1148.620361328125	480.6486511230469	861.596923828125	1136.64599609375	384.4535217285156	1005.760070800781	925.361572265625	473.0371398925781	932.0410766601562	907.4068603515625	518.4486083984375	886.0806274414062	1076.89013671875	501.9984741210938	1026.5078125	740.3759155273438	450.4122924804688	1035.751342773438	833.3671875	484.8199157714844	963.326904296875	825.3146362304688	518.1047973632812	1008.082641601562	1689.754638671875	234.7382507324219	1144.252563476562	1624.538452148438	77.71414947509766	1167.056762695312	1624.990600585938	205.2881469726562	981.8504638671875	1700.03173828125	100.829963684082	885.9957885742188	992.541015625	8.242781639099121	962.3919677734375	1014.651733398438	371.6514892578125	1039.572875976562	1039.728881835938	310.5799255371094	1012.746765136719	1029.626831054688	52.43583297729492	908.9077758789062	494.2931213378906	32.69208908081055	910.9833374023438	637.34765625	6.454543113708496	801.6524047851562	39.05487442016602	25.47923278808594	857.9270629882812	272.6538696289062	17.54286956787109	1021.803039550781	37.22222137451172	33.37520599365234	976.5046997070312	39.27400970458984	84.77727508544922	905.9071655273438	29.65226936340332	-23.64424896240234	757.3234252929688	38.99531936645508	99.49845123291016	963.0966796875	515.464111328125	352.7421264648438	1013.216918945312	782.8511962890625	377.9276733398438	834.1491088867188	39.40652084350586	367.3661804199219	963.1375122070312	392.6856079101562	337.2644348144531	1058.13623046875	40.19645309448242	331.8983459472656	1001.340759277344	35.58868789672852	287.2140808105469	946.531494140625	35.08803558349609	402.5765380859375	782.1952514648438	38.909912109375	299.7457275390625	
